<svg width="264" height="290" viewBox="0 0 264 290" fill="none" xmlns="http://www.w3.org/2000/svg">
<path d="M38.4793 283.486L13.0078 287.492L12.3864 283.541L6.49473 284.467L8.63807 278.902L4.90529 277.464L14.1716 253.402L17.9044 254.84L27.1707 230.778L23.4379 229.34L32.7042 205.278L36.437 206.716L45.7033 182.654L41.9705 181.216L51.2369 157.154L54.9696 158.592L64.236 134.53L60.5032 133.093L69.7695 109.031L73.5023 110.468L82.7686 86.4062L79.0358 84.9687L88.3021 60.9067L92.0349 62.3442L101.301 38.2823L97.5684 36.8448L106.835 12.7829L110.568 14.2203L112.711 8.65472L116.459 13.2937L119.57 10.7798L135.776 30.8356L132.664 33.3496L148.869 53.4054L151.981 50.8915L168.186 70.9473L165.074 73.4612L181.28 93.5171L184.391 91.0031L200.596 111.059L197.485 113.573L213.69 133.629L216.801 131.115L233.006 151.171L229.895 153.685L246.1 173.74L249.211 171.226L265.416 191.282L262.305 193.796L278.51 213.852L281.621 211.338L297.826 231.394L294.715 233.908L298.463 238.547L292.572 239.474L293.193 243.425L267.722 247.431L267.1 243.48L241.629 247.486L242.251 251.437L216.779 255.443L216.158 251.492L190.686 255.498L191.308 259.449L165.836 263.455L165.215 259.504L139.743 263.51L140.365 267.462L114.893 271.468L114.272 267.516L88.8006 271.522L89.4221 275.474L63.9507 279.48L63.3292 275.528L37.8578 279.535L38.4793 283.486Z" stroke="#EBDE72" stroke-width="8" stroke-dasharray="24 24"/>
</svg>
